<svg width="339" height="86" viewBox="0 0 339 86" fill="none" xmlns="http://www.w3.org/2000/svg">
<mask id="path-1-outside-1_1_27" maskUnits="userSpaceOnUse" x="93.9295" y="15.1071" width="211" height="58" fill="black">
<rect fill="white" x="93.9295" y="15.1071" width="211" height="58"/>
<path d="M95.5877 70.1071L112.746 19.2135H121.086L138.244 70.1071H131.1L126.486 55.8883H107.038L102.424 70.1071H95.5877ZM124.606 50.1119L116.745 26.1178L108.918 50.1119H124.606ZM185.89 70.1071V48.027C185.89 46.2724 185.822 44.6546 185.685 43.1735C185.549 41.6696 185.264 40.4961 184.831 39.653C184.375 38.7415 183.726 38.0693 182.883 37.6364C182.04 37.2034 180.9 36.9869 179.465 36.9869C178.143 36.9869 176.719 37.3971 175.192 38.2174C173.688 39.0149 172.127 40.177 170.51 41.7037C170.532 42.0911 170.555 42.5582 170.578 43.1051C170.624 43.6292 170.646 44.2558 170.646 44.985V70.1071H164.221V48.027C164.221 46.2724 164.152 44.6546 164.015 43.1735C163.879 41.6696 163.594 40.4961 163.161 39.653C162.705 38.7415 162.056 38.0693 161.213 37.6364C160.37 37.2034 159.23 36.9869 157.795 36.9869C156.405 36.9869 154.946 37.4199 153.42 38.2858C151.893 39.1517 150.412 40.2568 148.976 41.6012V70.1071H142.551V31.9283H148.976V36.1666C150.663 34.4804 152.326 33.1816 153.967 32.2701C155.63 31.3359 157.453 30.8688 159.435 30.8688C161.691 30.8688 163.685 31.3815 165.417 32.4069C167.171 33.4323 168.504 35.1184 169.416 37.4655C171.353 35.3007 173.244 33.6601 175.09 32.5436C176.935 31.427 178.941 30.8688 181.105 30.8688C182.746 30.8688 184.238 31.1308 185.583 31.6549C186.927 32.1562 188.101 32.9765 189.103 34.1158C190.129 35.278 190.915 36.7249 191.462 38.4567C192.031 40.1884 192.316 42.3645 192.316 44.985V70.1071H185.89ZM226.735 50.8981C226.735 46.3408 226.04 42.8886 224.65 40.5416C223.26 38.1718 221.027 36.9869 217.951 36.9869C216.196 36.9869 214.419 37.3971 212.619 38.2174C210.842 39.0377 209.224 40.0745 207.765 41.3278V63.2028C209.383 64.0003 210.819 64.5699 212.072 64.9117C213.325 65.2308 214.704 65.3903 216.208 65.3903C219.489 65.3903 222.064 64.2281 223.932 61.9039C225.801 59.5797 226.735 55.9111 226.735 50.8981ZM233.366 50.3854C233.366 56.6289 231.851 61.6533 228.82 65.4586C225.79 69.264 221.996 71.1666 217.438 71.1666C215.365 71.1666 213.587 70.9046 212.106 70.3805C210.648 69.8792 209.201 69.1956 207.765 68.3297L207.355 70.1071H201.34V16.9235H207.765V35.9274C209.383 34.469 211.138 33.2614 213.029 32.3043C214.92 31.3473 217.062 30.8688 219.455 30.8688C223.762 30.8688 227.157 32.6005 229.64 36.0641C232.124 39.5048 233.366 44.2786 233.366 50.3854ZM271.442 51.0348C271.442 57.4606 269.893 62.428 266.794 65.9371C263.695 69.4235 259.57 71.1666 254.421 71.1666C249.111 71.1666 244.93 69.3665 241.877 65.7662C238.846 62.1432 237.331 57.2327 237.331 51.0348C237.331 44.6546 238.892 39.6985 242.013 36.1666C245.158 32.6347 249.294 30.8688 254.421 30.8688C259.57 30.8688 263.695 32.6347 266.794 36.1666C269.893 39.6757 271.442 44.6318 271.442 51.0348ZM264.811 51.0348C264.811 46.0901 263.911 42.4215 262.111 40.0289C260.311 37.6136 257.748 36.4059 254.421 36.4059C251.071 36.4059 248.485 37.6136 246.662 40.0289C244.862 42.4215 243.962 46.0901 243.962 51.0348C243.962 55.8199 244.862 59.4544 246.662 61.9381C248.485 64.399 251.071 65.6295 254.421 65.6295C257.725 65.6295 260.277 64.4218 262.077 62.0065C263.9 59.5683 264.811 55.9111 264.811 51.0348ZM288.361 71.0299C285.809 71.0299 283.416 70.6881 281.183 70.0045C278.973 69.3209 277.139 68.5918 275.68 67.817V60.6051H276.022C276.569 61.038 277.207 61.5166 277.936 62.0406C278.688 62.5647 279.68 63.1116 280.91 63.6813C282.004 64.1826 283.2 64.6269 284.499 65.0143C285.82 65.4017 287.188 65.5953 288.6 65.5953C289.626 65.5953 290.72 65.4814 291.882 65.2535C293.044 65.0029 293.91 64.6953 294.479 64.3307C295.277 63.8066 295.846 63.2483 296.188 62.6559C296.553 62.0634 296.735 61.1748 296.735 59.9899C296.735 58.4632 296.314 57.3125 295.471 56.5377C294.65 55.763 293.18 55.1136 291.061 54.5895C290.241 54.3844 289.17 54.1451 287.848 53.8717C286.527 53.5983 285.308 53.302 284.191 52.983C281.275 52.1399 279.155 50.8411 277.834 49.0865C276.512 47.3092 275.851 45.1673 275.851 42.6608C275.851 39.22 277.15 36.4173 279.748 34.2526C282.346 32.0878 285.798 31.0055 290.104 31.0055C292.223 31.0055 294.354 31.2675 296.496 31.7916C298.638 32.3157 300.438 32.9765 301.896 33.774V40.6442H301.555C299.914 39.3453 298.08 38.3199 296.052 37.568C294.046 36.816 292.018 36.4401 289.968 36.4401C287.848 36.4401 286.06 36.8844 284.601 37.7731C283.143 38.6617 282.414 40.0061 282.414 41.8063C282.414 43.4013 282.847 44.5976 283.713 45.3951C284.579 46.1699 285.969 46.8079 287.883 47.3092C288.84 47.5599 289.899 47.8105 291.061 48.0612C292.246 48.289 293.488 48.5625 294.787 48.8815C297.612 49.5878 299.732 50.7614 301.144 52.402C302.58 54.0426 303.298 56.2757 303.298 59.1012C303.298 60.7418 302.967 62.3027 302.306 63.7838C301.668 65.2421 300.723 66.4954 299.47 67.5436C298.102 68.6829 296.553 69.5488 294.821 70.1412C293.112 70.7337 290.959 71.0299 288.361 71.0299Z"/>
</mask>
<path d="M95.5877 70.1071L112.746 19.2135H121.086L138.244 70.1071H131.1L126.486 55.8883H107.038L102.424 70.1071H95.5877ZM124.606 50.1119L116.745 26.1178L108.918 50.1119H124.606ZM185.89 70.1071V48.027C185.89 46.2724 185.822 44.6546 185.685 43.1735C185.549 41.6696 185.264 40.4961 184.831 39.653C184.375 38.7415 183.726 38.0693 182.883 37.6364C182.04 37.2034 180.9 36.9869 179.465 36.9869C178.143 36.9869 176.719 37.3971 175.192 38.2174C173.688 39.0149 172.127 40.177 170.51 41.7037C170.532 42.0911 170.555 42.5582 170.578 43.1051C170.624 43.6292 170.646 44.2558 170.646 44.985V70.1071H164.221V48.027C164.221 46.2724 164.152 44.6546 164.015 43.1735C163.879 41.6696 163.594 40.4961 163.161 39.653C162.705 38.7415 162.056 38.0693 161.213 37.6364C160.37 37.2034 159.23 36.9869 157.795 36.9869C156.405 36.9869 154.946 37.4199 153.42 38.2858C151.893 39.1517 150.412 40.2568 148.976 41.6012V70.1071H142.551V31.9283H148.976V36.1666C150.663 34.4804 152.326 33.1816 153.967 32.2701C155.63 31.3359 157.453 30.8688 159.435 30.8688C161.691 30.8688 163.685 31.3815 165.417 32.4069C167.171 33.4323 168.504 35.1184 169.416 37.4655C171.353 35.3007 173.244 33.6601 175.09 32.5436C176.935 31.427 178.941 30.8688 181.105 30.8688C182.746 30.8688 184.238 31.1308 185.583 31.6549C186.927 32.1562 188.101 32.9765 189.103 34.1158C190.129 35.278 190.915 36.7249 191.462 38.4567C192.031 40.1884 192.316 42.3645 192.316 44.985V70.1071H185.89ZM226.735 50.8981C226.735 46.3408 226.04 42.8886 224.65 40.5416C223.26 38.1718 221.027 36.9869 217.951 36.9869C216.196 36.9869 214.419 37.3971 212.619 38.2174C210.842 39.0377 209.224 40.0745 207.765 41.3278V63.2028C209.383 64.0003 210.819 64.5699 212.072 64.9117C213.325 65.2308 214.704 65.3903 216.208 65.3903C219.489 65.3903 222.064 64.2281 223.932 61.9039C225.801 59.5797 226.735 55.9111 226.735 50.8981ZM233.366 50.3854C233.366 56.6289 231.851 61.6533 228.82 65.4586C225.79 69.264 221.996 71.1666 217.438 71.1666C215.365 71.1666 213.587 70.9046 212.106 70.3805C210.648 69.8792 209.201 69.1956 207.765 68.3297L207.355 70.1071H201.34V16.9235H207.765V35.9274C209.383 34.469 211.138 33.2614 213.029 32.3043C214.92 31.3473 217.062 30.8688 219.455 30.8688C223.762 30.8688 227.157 32.6005 229.64 36.0641C232.124 39.5048 233.366 44.2786 233.366 50.3854ZM271.442 51.0348C271.442 57.4606 269.893 62.428 266.794 65.9371C263.695 69.4235 259.57 71.1666 254.421 71.1666C249.111 71.1666 244.93 69.3665 241.877 65.7662C238.846 62.1432 237.331 57.2327 237.331 51.0348C237.331 44.6546 238.892 39.6985 242.013 36.1666C245.158 32.6347 249.294 30.8688 254.421 30.8688C259.57 30.8688 263.695 32.6347 266.794 36.1666C269.893 39.6757 271.442 44.6318 271.442 51.0348ZM264.811 51.0348C264.811 46.0901 263.911 42.4215 262.111 40.0289C260.311 37.6136 257.748 36.4059 254.421 36.4059C251.071 36.4059 248.485 37.6136 246.662 40.0289C244.862 42.4215 243.962 46.0901 243.962 51.0348C243.962 55.8199 244.862 59.4544 246.662 61.9381C248.485 64.399 251.071 65.6295 254.421 65.6295C257.725 65.6295 260.277 64.4218 262.077 62.0065C263.9 59.5683 264.811 55.9111 264.811 51.0348ZM288.361 71.0299C285.809 71.0299 283.416 70.6881 281.183 70.0045C278.973 69.3209 277.139 68.5918 275.68 67.817V60.6051H276.022C276.569 61.038 277.207 61.5166 277.936 62.0406C278.688 62.5647 279.68 63.1116 280.91 63.6813C282.004 64.1826 283.2 64.6269 284.499 65.0143C285.82 65.4017 287.188 65.5953 288.6 65.5953C289.626 65.5953 290.72 65.4814 291.882 65.2535C293.044 65.0029 293.91 64.6953 294.479 64.3307C295.277 63.8066 295.846 63.2483 296.188 62.6559C296.553 62.0634 296.735 61.1748 296.735 59.9899C296.735 58.4632 296.314 57.3125 295.471 56.5377C294.65 55.763 293.18 55.1136 291.061 54.5895C290.241 54.3844 289.17 54.1451 287.848 53.8717C286.527 53.5983 285.308 53.302 284.191 52.983C281.275 52.1399 279.155 50.8411 277.834 49.0865C276.512 47.3092 275.851 45.1673 275.851 42.6608C275.851 39.22 277.15 36.4173 279.748 34.2526C282.346 32.0878 285.798 31.0055 290.104 31.0055C292.223 31.0055 294.354 31.2675 296.496 31.7916C298.638 32.3157 300.438 32.9765 301.896 33.774V40.6442H301.555C299.914 39.3453 298.08 38.3199 296.052 37.568C294.046 36.816 292.018 36.4401 289.968 36.4401C287.848 36.4401 286.06 36.8844 284.601 37.7731C283.143 38.6617 282.414 40.0061 282.414 41.8063C282.414 43.4013 282.847 44.5976 283.713 45.3951C284.579 46.1699 285.969 46.8079 287.883 47.3092C288.84 47.5599 289.899 47.8105 291.061 48.0612C292.246 48.289 293.488 48.5625 294.787 48.8815C297.612 49.5878 299.732 50.7614 301.144 52.402C302.58 54.0426 303.298 56.2757 303.298 59.1012C303.298 60.7418 302.967 62.3027 302.306 63.7838C301.668 65.2421 300.723 66.4954 299.47 67.5436C298.102 68.6829 296.553 69.5488 294.821 70.1412C293.112 70.7337 290.959 71.0299 288.361 71.0299Z" fill="#27271F"/>
<path d="M95.5877 70.1071L94.6401 69.7876L94.1953 71.1071H95.5877V70.1071ZM112.746 19.2135V18.2135H112.028L111.798 18.894L112.746 19.2135ZM121.086 19.2135L122.033 18.894L121.804 18.2135H121.086V19.2135ZM138.244 70.1071V71.1071H139.636L139.192 69.7876L138.244 70.1071ZM131.1 70.1071L130.149 70.4157L130.374 71.1071H131.1V70.1071ZM126.486 55.8883L127.437 55.5796L127.213 54.8883H126.486V55.8883ZM107.038 55.8883V54.8883H106.311L106.087 55.5796L107.038 55.8883ZM102.424 70.1071V71.1071H103.15L103.375 70.4157L102.424 70.1071ZM124.606 50.1119V51.1119H125.986L125.557 49.8006L124.606 50.1119ZM116.745 26.1178L117.695 25.8064L116.743 22.8997L115.794 25.8077L116.745 26.1178ZM108.918 50.1119L107.967 49.8018L107.54 51.1119H108.918V50.1119ZM96.5353 70.4265L113.694 19.533L111.798 18.894L94.6401 69.7876L96.5353 70.4265ZM112.746 20.2135H121.086V18.2135H112.746V20.2135ZM120.138 19.533L137.296 70.4265L139.192 69.7876L122.033 18.894L120.138 19.533ZM138.244 69.1071H131.1V71.1071H138.244V69.1071ZM132.052 69.7984L127.437 55.5796L125.535 56.197L130.149 70.4157L132.052 69.7984ZM126.486 54.8883H107.038V56.8883H126.486V54.8883ZM106.087 55.5796L101.472 69.7984L103.375 70.4157L107.989 56.197L106.087 55.5796ZM102.424 69.1071H95.5877V71.1071H102.424V69.1071ZM125.557 49.8006L117.695 25.8064L115.795 26.4291L123.656 50.4233L125.557 49.8006ZM115.794 25.8077L107.967 49.8018L109.868 50.4221L117.696 26.4279L115.794 25.8077ZM108.918 51.1119H124.606V49.1119H108.918V51.1119ZM185.89 70.1071H184.89V71.1071H185.89V70.1071ZM185.685 43.1735L184.689 43.264L184.69 43.2654L185.685 43.1735ZM184.831 39.653L183.936 40.1002L183.941 40.1098L184.831 39.653ZM175.192 38.2174L175.661 39.1009L175.666 39.0983L175.192 38.2174ZM170.51 41.7037L169.823 40.9764L169.484 41.2967L169.511 41.7625L170.51 41.7037ZM170.578 43.1051L169.579 43.1467L169.58 43.1693L169.582 43.1917L170.578 43.1051ZM170.646 70.1071V71.1071H171.646V70.1071H170.646ZM164.221 70.1071H163.221V71.1071H164.221V70.1071ZM164.015 43.1735L163.02 43.264L163.02 43.2654L164.015 43.1735ZM163.161 39.653L162.266 40.1002L162.271 40.1098L163.161 39.653ZM153.42 38.2858L153.913 39.1556L153.42 38.2858ZM148.976 41.6012L148.293 40.8713L147.976 41.1677V41.6012H148.976ZM148.976 70.1071V71.1071H149.976V70.1071H148.976ZM142.551 70.1071H141.551V71.1071H142.551V70.1071ZM142.551 31.9283V30.9283H141.551V31.9283H142.551ZM148.976 31.9283H149.976V30.9283H148.976V31.9283ZM148.976 36.1666H147.976V38.5808L149.683 36.8737L148.976 36.1666ZM153.967 32.2701L154.452 33.1443L154.456 33.142L153.967 32.2701ZM165.417 32.4069L164.907 33.2673L164.912 33.2702L165.417 32.4069ZM169.416 37.4655L168.484 37.8275L169.074 39.3473L170.161 38.1322L169.416 37.4655ZM185.583 31.6549L185.22 32.5866L185.227 32.5893L185.233 32.5919L185.583 31.6549ZM189.103 34.1158L188.353 34.7765L188.353 34.7775L189.103 34.1158ZM191.462 38.4567L190.508 38.7578L190.512 38.7691L191.462 38.4567ZM192.316 70.1071V71.1071H193.316V70.1071H192.316ZM186.89 70.1071V48.027H184.89V70.1071H186.89ZM186.89 48.027C186.89 46.247 186.821 44.5981 186.681 43.0815L184.69 43.2654C184.823 44.7111 184.89 46.2978 184.89 48.027H186.89ZM186.681 43.0829C186.539 41.5182 186.236 40.2009 185.72 39.1961L183.941 40.1098C184.291 40.7912 184.558 41.8209 184.689 43.264L186.681 43.0829ZM185.725 39.2057C185.182 38.1192 184.386 37.2844 183.339 36.7468L182.426 38.5259C183.065 38.8542 183.568 39.3638 183.936 40.1002L185.725 39.2057ZM183.339 36.7468C182.301 36.2135 180.984 35.9869 179.465 35.9869V37.9869C180.816 37.9869 181.778 38.1934 182.426 38.5259L183.339 36.7468ZM179.465 35.9869C177.934 35.9869 176.347 36.4615 174.719 37.3365L175.666 39.0983C177.09 38.3326 178.352 37.9869 179.465 37.9869V35.9869ZM174.724 37.3339C173.121 38.1841 171.488 39.4059 169.823 40.9764L171.196 42.431C172.767 40.9482 174.256 39.8458 175.661 39.1009L174.724 37.3339ZM169.511 41.7625C169.534 42.1424 169.556 42.6035 169.579 43.1467L171.577 43.0635C171.554 42.513 171.531 42.0399 171.508 41.645L169.511 41.7625ZM169.582 43.1917C169.624 43.6784 169.646 44.2746 169.646 44.985H171.646C171.646 44.237 171.623 43.58 171.574 43.0185L169.582 43.1917ZM169.646 44.985V70.1071H171.646V44.985H169.646ZM170.646 69.1071H164.221V71.1071H170.646V69.1071ZM165.221 70.1071V48.027H163.221V70.1071H165.221ZM165.221 48.027C165.221 46.247 165.151 44.5981 165.011 43.0815L163.02 43.2654C163.153 44.7111 163.221 46.2978 163.221 48.027H165.221ZM165.011 43.0829C164.869 41.5182 164.566 40.2009 164.051 39.1961L162.271 40.1098C162.621 40.7912 162.888 41.8209 163.02 43.264L165.011 43.0829ZM164.055 39.2057C163.512 38.1192 162.716 37.2844 161.67 36.7468L160.756 38.5259C161.395 38.8542 161.898 39.3638 162.267 40.1002L164.055 39.2057ZM161.67 36.7468C160.631 36.2135 159.314 35.9869 157.795 35.9869V37.9869C159.146 37.9869 160.108 38.1934 160.756 38.5259L161.67 36.7468ZM157.795 35.9869C156.192 35.9869 154.565 36.4868 152.926 37.4159L153.913 39.1556C155.328 38.353 156.617 37.9869 157.795 37.9869V35.9869ZM152.926 37.4159C151.323 38.3251 149.779 39.4793 148.293 40.8713L149.66 42.3311C151.045 41.0343 152.463 39.9782 153.913 39.1556L152.926 37.4159ZM147.976 41.6012V70.1071H149.976V41.6012H147.976ZM148.976 69.1071H142.551V71.1071H148.976V69.1071ZM143.551 70.1071V31.9283H141.551V70.1071H143.551ZM142.551 32.9283H148.976V30.9283H142.551V32.9283ZM147.976 31.9283V36.1666H149.976V31.9283H147.976ZM149.683 36.8737C151.321 35.2364 152.911 34.0004 154.452 33.1443L153.481 31.396C151.741 32.3628 150.004 33.7245 148.269 35.4595L149.683 36.8737ZM154.456 33.142C155.964 32.2951 157.617 31.8688 159.435 31.8688V29.8688C157.288 29.8688 155.296 30.3767 153.477 31.3982L154.456 33.142ZM159.435 31.8688C161.534 31.8688 163.348 32.344 164.907 33.2673L165.926 31.5464C164.022 30.419 161.848 29.8688 159.435 29.8688V31.8688ZM164.912 33.2702C166.429 34.1565 167.634 35.6395 168.484 37.8275L170.348 37.1034C169.375 34.5974 167.914 32.708 165.921 31.5435L164.912 33.2702ZM170.161 38.1322C172.053 36.0176 173.87 34.4502 175.607 33.3992L174.572 31.688C172.618 32.8701 170.652 34.5839 168.671 36.7987L170.161 38.1322ZM175.607 33.3992C177.296 32.3775 179.122 31.8688 181.105 31.8688V29.8688C178.759 29.8688 176.574 30.4766 174.572 31.688L175.607 33.3992ZM181.105 31.8688C182.639 31.8688 184.006 32.1134 185.22 32.5866L185.946 30.7232C184.471 30.1482 182.853 29.8688 181.105 29.8688V31.8688ZM185.233 32.5919C186.414 33.0322 187.452 33.7536 188.353 34.7765L189.854 33.4552C188.749 32.1995 187.44 31.2802 185.932 30.7179L185.233 32.5919ZM188.353 34.7775C189.272 35.8185 189.996 37.1365 190.508 38.7578L192.415 38.1555C191.834 36.3133 190.985 34.7374 189.853 33.4542L188.353 34.7775ZM190.512 38.7691C191.037 40.3665 191.316 42.4284 191.316 44.985H193.316C193.316 42.3007 193.026 40.0104 192.412 38.1442L190.512 38.7691ZM191.316 44.985V70.1071H193.316V44.985H191.316ZM192.316 69.1071H185.89V71.1071H192.316V69.1071ZM224.65 40.5416L223.788 41.0476L223.79 41.0512L224.65 40.5416ZM212.619 38.2174L212.204 37.3074L212.2 37.3094L212.619 38.2174ZM207.765 41.3278L207.114 40.5693L206.765 40.8686V41.3278H207.765ZM207.765 63.2028H206.765V63.8247L207.323 64.0997L207.765 63.2028ZM212.072 64.9117L211.809 65.8765L211.817 65.8787L211.825 65.8808L212.072 64.9117ZM228.82 65.4586L228.038 64.8356L228.82 65.4586ZM212.106 70.3805L212.44 69.4377L212.431 69.4348L212.106 70.3805ZM207.765 68.3297L208.282 67.4734L207.101 66.7612L206.791 68.1049L207.765 68.3297ZM207.355 70.1071V71.1071H208.151L208.33 70.3319L207.355 70.1071ZM201.34 70.1071H200.34V71.1071H201.34V70.1071ZM201.34 16.9235V15.9235H200.34V16.9235H201.34ZM207.765 16.9235H208.765V15.9235H207.765V16.9235ZM207.765 35.9274H206.765V38.1751L208.435 36.6701L207.765 35.9274ZM213.029 32.3043L212.578 31.4121L213.029 32.3043ZM229.64 36.0641L228.828 36.6468L228.83 36.6494L229.64 36.0641ZM227.735 50.8981C227.735 46.2682 227.034 42.6047 225.511 40.0321L223.79 41.0512C225.046 43.1725 225.735 46.4133 225.735 50.8981H227.735ZM225.513 40.0357C223.919 37.3182 221.331 35.9869 217.951 35.9869V37.9869C220.723 37.9869 222.602 39.0255 223.788 41.0476L225.513 40.0357ZM217.951 35.9869C216.036 35.9869 214.118 36.4354 212.204 37.3074L213.034 39.1274C214.72 38.3588 216.357 37.9869 217.951 37.9869V35.9869ZM212.2 37.3094C210.34 38.1679 208.644 39.2546 207.114 40.5693L208.417 42.0862C209.804 40.8944 211.343 39.9076 213.038 39.1254L212.2 37.3094ZM206.765 41.3278V63.2028H208.765V41.3278H206.765ZM207.323 64.0997C208.978 64.9155 210.475 65.5128 211.809 65.8765L212.335 63.947C211.162 63.6271 209.788 63.0851 208.208 62.3058L207.323 64.0997ZM211.825 65.8808C213.171 66.2234 214.634 66.3903 216.208 66.3903V64.3903C214.774 64.3903 213.48 64.2381 212.319 63.9426L211.825 65.8808ZM216.208 66.3903C219.757 66.3903 222.633 65.1165 224.712 62.5305L223.153 61.2774C221.495 63.3398 219.221 64.3903 216.208 64.3903V66.3903ZM224.712 62.5305C226.792 59.9429 227.735 55.9971 227.735 50.8981H225.735C225.735 55.8251 224.81 59.2165 223.153 61.2774L224.712 62.5305ZM232.366 50.3854C232.366 56.4676 230.892 61.2523 228.038 64.8356L229.602 66.0816C232.81 62.0543 234.366 56.7902 234.366 50.3854H232.366ZM228.038 64.8356C225.182 68.4212 221.668 70.1666 217.438 70.1666V72.1666C222.323 72.1666 226.397 70.1067 229.602 66.0816L228.038 64.8356ZM217.438 70.1666C215.444 70.1666 213.786 69.914 212.44 69.4378L211.773 71.3232C213.389 71.8952 215.285 72.1666 217.438 72.1666V70.1666ZM212.431 69.4348C211.045 68.9584 209.662 68.306 208.282 67.4734L207.249 69.186C208.74 70.0852 210.251 70.8 211.781 71.3262L212.431 69.4348ZM206.791 68.1049L206.381 69.8822L208.33 70.3319L208.74 68.5546L206.791 68.1049ZM207.355 69.1071H201.34V71.1071H207.355V69.1071ZM202.34 70.1071V16.9235H200.34V70.1071H202.34ZM201.34 17.9235H207.765V15.9235H201.34V17.9235ZM206.765 16.9235V35.9274H208.765V16.9235H206.765ZM208.435 36.6701C209.989 35.2694 211.67 34.1126 213.481 33.1966L212.578 31.4121C210.605 32.4101 208.778 33.6686 207.096 35.1846L208.435 36.6701ZM213.481 33.1966C215.215 32.319 217.199 31.8688 219.455 31.8688V29.8688C216.926 29.8688 214.626 30.3755 212.578 31.4121L213.481 33.1966ZM219.455 31.8688C223.443 31.8688 226.534 33.4485 228.828 36.6468L230.453 35.4813C227.779 31.7526 224.08 29.8688 219.455 29.8688V31.8688ZM228.83 36.6494C231.147 39.8597 232.366 44.4 232.366 50.3854H234.366C234.366 44.1572 233.101 39.15 230.451 35.4788L228.83 36.6494ZM266.794 65.9371L267.541 66.6015L267.543 66.5991L266.794 65.9371ZM241.877 65.7662L241.11 66.4079L241.114 66.413L241.877 65.7662ZM242.013 36.1666L241.267 35.5017L241.264 35.5044L242.013 36.1666ZM266.794 36.1666L266.042 36.8262L266.044 36.8286L266.794 36.1666ZM262.111 40.0289L261.309 40.6265L261.312 40.6301L262.111 40.0289ZM246.662 40.0289L245.864 39.4265L245.863 39.4277L246.662 40.0289ZM246.662 61.9381L245.852 62.525L245.858 62.5333L246.662 61.9381ZM262.077 62.0065L261.276 61.4077L261.275 61.4089L262.077 62.0065ZM270.442 51.0348C270.442 57.3079 268.93 62.0072 266.044 65.2752L267.543 66.5991C270.855 62.8488 272.442 57.6132 272.442 51.0348H270.442ZM266.046 65.2728C263.158 68.522 259.318 70.1666 254.421 70.1666V72.1666C259.823 72.1666 264.231 70.325 267.541 66.6015L266.046 65.2728ZM254.421 70.1666C249.364 70.1666 245.478 68.4661 242.639 65.1194L241.114 66.413C244.383 70.2669 248.859 72.1666 254.421 72.1666V70.1666ZM242.644 65.1246C239.805 61.7312 238.331 57.0723 238.331 51.0348H236.331C236.331 57.3931 237.887 62.5552 241.11 66.4078L242.644 65.1246ZM238.331 51.0348C238.331 44.8115 239.852 40.1219 242.763 36.8289L241.264 35.5044C237.931 39.2751 236.331 44.4977 236.331 51.0348H238.331ZM242.76 36.8316C245.698 33.5322 249.552 31.8688 254.421 31.8688V29.8688C249.035 29.8688 244.618 31.7373 241.267 35.5017L242.76 36.8316ZM254.421 31.8688C259.314 31.8688 263.153 33.533 266.042 36.8262L267.545 35.5071C264.237 31.7365 259.827 29.8688 254.421 29.8688V31.8688ZM266.044 36.8286C268.931 40.0971 270.442 44.7855 270.442 51.0348H272.442C272.442 44.4781 270.855 39.2544 267.543 35.5047L266.044 36.8286ZM265.811 51.0348C265.811 46.0024 264.901 42.0743 262.91 39.4277L261.312 40.6301C262.921 42.7688 263.811 46.1779 263.811 51.0348H265.811ZM262.913 39.4314C260.902 36.7337 258.025 35.4059 254.421 35.4059V37.4059C257.47 37.4059 259.72 38.4934 261.309 40.6265L262.913 39.4314ZM254.421 35.4059C250.796 35.4059 247.898 36.7315 245.864 39.4265L247.46 40.6313C249.072 38.4956 251.346 37.4059 254.421 37.4059V35.4059ZM245.863 39.4277C243.872 42.0743 242.962 46.0024 242.962 51.0348H244.962C244.962 46.1779 245.852 42.7688 247.461 40.6301L245.863 39.4277ZM242.962 51.0348C242.962 55.9207 243.877 59.799 245.852 62.525L247.472 61.3513C245.847 59.1097 244.962 55.7192 244.962 51.0348H242.962ZM245.858 62.5333C247.889 65.2753 250.789 66.6295 254.421 66.6295V64.6295C251.354 64.6295 249.08 63.5228 247.465 61.3429L245.858 62.5333ZM254.421 66.6295C258.005 66.6295 260.87 65.2997 262.879 62.604L261.275 61.4089C259.684 63.544 257.444 64.6295 254.421 64.6295V66.6295ZM262.878 62.6053C264.887 59.9179 265.811 56.0068 265.811 51.0348H263.811C263.811 55.8154 262.913 59.2187 261.276 61.4077L262.878 62.6053ZM281.183 70.0045L280.888 70.9599L280.891 70.9607L281.183 70.0045ZM275.68 67.817H274.68V68.4181L275.211 68.7001L275.68 67.817ZM275.68 60.6051V59.6051H274.68V60.6051H275.68ZM276.022 60.6051L276.643 59.8211L276.37 59.6051H276.022V60.6051ZM277.936 62.0406L277.353 62.8527L277.359 62.8569L277.365 62.861L277.936 62.0406ZM280.91 63.6813L280.49 64.5887L280.493 64.5903L280.91 63.6813ZM284.499 65.0143L284.213 65.9726L284.218 65.9739L284.499 65.0143ZM291.882 65.2535L292.074 66.2349L292.083 66.233L292.092 66.2311L291.882 65.2535ZM294.479 64.3307L295.018 65.173L295.028 65.1664L294.479 64.3307ZM296.188 62.6559L295.337 62.1318L295.329 62.1439L295.322 62.1562L296.188 62.6559ZM295.471 56.5377L294.784 57.2648L294.794 57.274L295.471 56.5377ZM291.061 54.5895L290.819 55.5596L290.821 55.5602L291.061 54.5895ZM284.191 52.983L283.914 53.9437L283.917 53.9446L284.191 52.983ZM277.834 49.0865L277.031 49.6833L277.035 49.6882L277.834 49.0865ZM279.748 34.2526L279.108 33.4843L279.748 34.2526ZM301.896 33.774H302.896V33.1812L302.376 32.8967L301.896 33.774ZM301.896 40.6442V41.6442H302.896V40.6442H301.896ZM301.555 40.6442L300.934 41.4282L301.207 41.6442H301.555V40.6442ZM296.052 37.568L295.7 38.5043L295.704 38.5056L296.052 37.568ZM283.713 45.3951L283.035 46.1307L283.041 46.1356L283.046 46.1404L283.713 45.3951ZM287.883 47.3092L288.136 46.3418L287.883 47.3092ZM291.061 48.0612L290.851 49.0387L290.861 49.041L290.872 49.0432L291.061 48.0612ZM294.787 48.8815L295.029 47.9113L295.025 47.9103L294.787 48.8815ZM301.144 52.402L300.387 53.0545L300.392 53.0605L301.144 52.402ZM302.306 63.7838L301.393 63.3764L301.39 63.383L302.306 63.7838ZM299.47 67.5436L300.11 68.3118L300.111 68.3107L299.47 67.5436ZM294.821 70.1412L294.497 69.1951L294.494 69.1964L294.821 70.1412ZM288.361 70.0299C285.899 70.0299 283.606 69.7003 281.476 69.0483L280.891 70.9607C283.227 71.6759 285.719 72.0299 288.361 72.0299V70.0299ZM281.479 69.0492C279.307 68.3774 277.535 67.6701 276.15 66.9339L275.211 68.7001C276.742 69.5134 278.639 70.2645 280.888 70.9599L281.479 69.0492ZM276.68 67.817V60.6051H274.68V67.817H276.68ZM275.68 61.6051H276.022V59.6051H275.68V61.6051ZM275.402 61.3891C275.963 61.834 276.614 62.322 277.353 62.8527L278.52 61.2286C277.8 60.7112 277.175 60.2421 276.643 59.8211L275.402 61.3891ZM277.365 62.861C278.181 63.4303 279.229 64.005 280.49 64.5887L281.33 62.7738C280.13 62.2182 279.195 61.6992 278.508 61.2203L277.365 62.861ZM280.493 64.5903C281.634 65.1133 282.875 65.5735 284.213 65.9726L284.785 64.056C283.525 63.6803 282.373 63.2518 281.327 62.7722L280.493 64.5903ZM284.218 65.9739C285.633 66.3887 287.095 66.5953 288.6 66.5953V64.5953C287.28 64.5953 286.008 64.4146 284.78 64.0547L284.218 65.9739ZM288.6 66.5953C289.699 66.5953 290.858 66.4733 292.074 66.2349L291.689 64.2722C290.581 64.4895 289.552 64.5953 288.6 64.5953V66.5953ZM292.092 66.2311C293.297 65.9713 294.3 65.633 295.018 65.173L293.94 63.4884C293.52 63.7575 292.791 64.0344 291.671 64.276L292.092 66.2311ZM295.028 65.1664C295.908 64.5885 296.61 63.9259 297.054 63.1556L295.322 62.1562C295.083 62.5708 294.646 63.0247 293.93 63.495L295.028 65.1664ZM297.04 63.18C297.548 62.3545 297.735 61.2448 297.735 59.9899H295.735C295.735 61.1047 295.558 61.7724 295.337 62.1318L297.04 63.18ZM297.735 59.9899C297.735 58.281 297.259 56.8228 296.147 55.8014L294.794 57.274C295.369 57.8021 295.735 58.6454 295.735 59.9899H297.735ZM296.157 55.8107C295.141 54.8511 293.458 54.1522 291.301 53.6187L290.821 55.5602C292.903 56.075 294.159 56.6748 294.784 57.2647L296.157 55.8107ZM291.304 53.6193C290.465 53.4096 289.379 53.1672 288.051 52.8924L287.646 54.851C288.961 55.1231 290.017 55.3592 290.819 55.5596L291.304 53.6193ZM288.051 52.8924C286.75 52.6232 285.555 52.3327 284.466 52.0215L283.917 53.9446C285.06 54.2714 286.304 54.5733 287.646 54.851L288.051 52.8924ZM284.469 52.0224C281.682 51.2169 279.782 50.0114 278.633 48.4849L277.035 49.6882C278.528 51.6709 280.867 53.063 283.914 53.9437L284.469 52.0224ZM278.636 48.4898C277.46 46.9073 276.851 44.9819 276.851 42.6608H274.851C274.851 45.3526 275.565 47.7111 277.031 49.6833L278.636 48.4898ZM276.851 42.6608C276.851 39.5108 278.023 36.9917 280.388 35.0208L279.108 33.4843C276.277 35.8429 274.851 38.9293 274.851 42.6608H276.851ZM280.388 35.0208C282.761 33.043 285.966 32.0055 290.104 32.0055V30.0055C285.629 30.0055 281.93 31.1327 279.108 33.4843L280.388 35.0208ZM290.104 32.0055C292.14 32.0055 294.191 32.2571 296.258 32.763L296.734 30.8203C294.517 30.2779 292.307 30.0055 290.104 30.0055V32.0055ZM296.258 32.763C298.341 33.2727 300.055 33.9066 301.416 34.6514L302.376 32.8967C300.821 32.0464 298.934 31.3587 296.734 30.8203L296.258 32.763ZM300.896 33.774V40.6442H302.896V33.774H300.896ZM301.896 39.6442H301.555V41.6442H301.896V39.6442ZM302.175 39.8601C300.449 38.4939 298.522 37.4176 296.399 36.6304L295.704 38.5056C297.637 39.2223 299.378 40.1968 300.934 41.4282L302.175 39.8601ZM296.403 36.6317C294.29 35.8395 292.144 35.4401 289.968 35.4401V37.4401C291.893 37.4401 293.802 37.7926 295.7 38.5043L296.403 36.6317ZM289.968 35.4401C287.709 35.4401 285.73 35.9144 284.081 36.9191L285.122 38.627C286.39 37.8544 287.988 37.4401 289.968 37.4401V35.4401ZM284.081 36.9191C282.306 38.0009 281.414 39.6802 281.414 41.8063H283.414C283.414 40.3321 283.98 39.3226 285.122 38.627L284.081 36.9191ZM281.414 41.8063C281.414 43.5776 281.898 45.0837 283.035 46.1307L284.39 44.6596C283.795 44.1116 283.414 43.2251 283.414 41.8063H281.414ZM283.046 46.1404C284.086 47.0708 285.656 47.7597 287.629 48.2766L288.136 46.3418C286.281 45.8561 285.071 45.269 284.38 44.6499L283.046 46.1404ZM287.629 48.2766C288.603 48.5316 289.677 48.7855 290.851 49.0387L291.272 47.0836C290.122 46.8355 289.076 46.5881 288.136 46.3418L287.629 48.2766ZM290.872 49.0432C292.039 49.2675 293.264 49.5372 294.548 49.8526L295.025 47.9103C293.712 47.5877 292.453 47.3105 291.25 47.0792L290.872 49.0432ZM294.544 49.8516C297.238 50.5249 299.148 51.6163 300.387 53.0545L301.902 51.7495C300.315 49.9064 297.987 48.6508 295.029 47.9113L294.544 49.8516ZM300.392 53.0605C301.625 54.4703 302.298 56.4445 302.298 59.1012H304.298C304.298 56.1068 303.534 53.6149 301.897 51.7435L300.392 53.0605ZM302.298 59.1012C302.298 60.6031 301.996 62.025 301.393 63.3764L303.22 64.1913C303.938 62.5804 304.298 60.8805 304.298 59.1012H302.298ZM301.39 63.383C300.816 64.6958 299.966 65.8248 298.828 66.7765L300.111 68.3107C301.48 67.166 302.521 65.7885 303.223 64.1846L301.39 63.383ZM298.829 66.7754C297.559 67.8343 296.117 68.641 294.497 69.1951L295.145 71.0874C296.989 70.4566 298.646 69.5315 300.11 68.3118L298.829 66.7754ZM294.494 69.1964C292.925 69.7402 290.892 70.0299 288.361 70.0299V72.0299C291.026 72.0299 293.299 71.7272 295.149 71.0861L294.494 69.1964Z" fill="#27271F" mask="url(#path-1-outside-1_1_27)"/>
<line x1="20.6691" y1="20.4818" x2="114.236" y2="20.4818" stroke="#27271F" stroke-width="2"/>
<path d="M21.2217 18.8752C21.2217 24.2043 16.9016 28.5244 11.5724 28.5244C6.24333 28.5244 1.92322 24.2043 1.92322 18.8752C1.92322 13.5461 6.24333 9.22598 11.5724 9.22598C16.9016 9.22598 21.2217 13.5461 21.2217 18.8752Z" stroke="#27271F" stroke-width="2"/>
</svg>
