<svg width="308" height="86" viewBox="0 0 308 86" fill="none" xmlns="http://www.w3.org/2000/svg">
<mask id="path-1-outside-1_1_23" maskUnits="userSpaceOnUse" x="1" y="17" width="153" height="69" fill="black">
<rect fill="white" x="1" y="17" width="153" height="69"/>
<path d="M25.0537 70.9229C21.7269 70.9229 18.6621 70.3646 15.8594 69.248C13.0794 68.1315 10.6755 66.4681 8.64746 64.2578C6.61947 62.0475 5.0472 59.2904 3.93066 55.9863C2.81413 52.6823 2.25586 48.8883 2.25586 44.6045C2.25586 40.3434 2.79134 36.6292 3.8623 33.4619C4.95605 30.2946 6.53971 27.5374 8.61328 25.1904C10.6413 22.9118 13.0452 21.18 15.8252 19.9951C18.6051 18.7874 21.7155 18.1836 25.1562 18.1836C26.8652 18.1836 28.4603 18.3089 29.9414 18.5596C31.4453 18.8102 32.8353 19.1292 34.1113 19.5166C35.2051 19.8584 36.3216 20.2913 37.4609 20.8154C38.623 21.3167 39.7624 21.875 40.8789 22.4902V30.6592H40.332C39.7396 30.1123 38.9762 29.4515 38.042 28.6768C37.1077 27.902 35.9684 27.1387 34.624 26.3867C33.3252 25.6803 31.9124 25.0993 30.3857 24.6436C28.859 24.1878 27.0931 23.96 25.0879 23.96C22.9232 23.96 20.8724 24.4043 18.9355 25.293C16.9987 26.1816 15.3011 27.4919 13.8428 29.2236C12.4072 30.9554 11.2907 33.1315 10.4932 35.752C9.69564 38.3724 9.29688 41.3232 9.29688 44.6045C9.29688 48.0908 9.71842 51.0986 10.5615 53.6279C11.4046 56.1344 12.5553 58.2536 14.0137 59.9854C15.4264 61.6715 17.0898 62.9476 19.0039 63.8135C20.918 64.6566 22.946 65.0781 25.0879 65.0781C27.0475 65.0781 28.859 64.8389 30.5225 64.3604C32.1859 63.8818 33.667 63.278 34.9658 62.5488C36.2191 61.8424 37.3014 61.1247 38.2129 60.3955C39.1243 59.6436 39.8421 59.0055 40.3662 58.4814H40.8789V66.5479C39.7624 67.0719 38.7028 67.5732 37.7002 68.0518C36.7204 68.5303 35.5241 68.9974 34.1113 69.4531C32.6302 69.9316 31.2516 70.2962 29.9756 70.5469C28.7223 70.7975 27.0817 70.9229 25.0537 70.9229ZM76.6992 31.8213L56.1572 84.082H49.2871L56.123 68.1543L42.2461 31.8213H49.1846L59.6094 60.0879L70 31.8213H76.6992ZM101.787 38.7256H101.445C100.967 38.5889 100.454 38.5091 99.9072 38.4863C99.3831 38.4408 98.7451 38.418 97.9932 38.418C96.2614 38.418 94.541 38.7939 92.832 39.5459C91.123 40.2979 89.5052 41.4144 87.9785 42.8955V70H81.5527V31.8213H87.9785V37.4951C90.3255 35.4215 92.3649 33.9632 94.0967 33.1201C95.8512 32.2542 97.5488 31.8213 99.1895 31.8213C99.8503 31.8213 100.34 31.8441 100.659 31.8896C101.001 31.9124 101.377 31.958 101.787 32.0264V38.7256ZM113.34 70H106.914V31.8213H113.34V70ZM113.784 25.4297H106.47V18.7646H113.784V25.4297ZM152.783 70H146.357V48.2617C146.357 46.5072 146.266 44.8779 146.084 43.374C145.924 41.8473 145.605 40.6283 145.127 39.7168C144.603 38.7598 143.874 38.0534 142.939 37.5977C142.005 37.1191 140.729 36.8799 139.111 36.8799C137.516 36.8799 135.864 37.3128 134.155 38.1787C132.469 39.0218 130.817 40.127 129.199 41.4941V70H122.773V31.8213H129.199V36.0596C131.113 34.3506 133.005 33.0404 134.873 32.1289C136.742 31.2174 138.713 30.7617 140.786 30.7617C144.546 30.7617 147.485 32.0036 149.604 34.4873C151.724 36.9482 152.783 40.5257 152.783 45.2197V70Z"/>
</mask>
<path d="M25.0537 70.9229C21.7269 70.9229 18.6621 70.3646 15.8594 69.248C13.0794 68.1315 10.6755 66.4681 8.64746 64.2578C6.61947 62.0475 5.0472 59.2904 3.93066 55.9863C2.81413 52.6823 2.25586 48.8883 2.25586 44.6045C2.25586 40.3434 2.79134 36.6292 3.8623 33.4619C4.95605 30.2946 6.53971 27.5374 8.61328 25.1904C10.6413 22.9118 13.0452 21.18 15.8252 19.9951C18.6051 18.7874 21.7155 18.1836 25.1562 18.1836C26.8652 18.1836 28.4603 18.3089 29.9414 18.5596C31.4453 18.8102 32.8353 19.1292 34.1113 19.5166C35.2051 19.8584 36.3216 20.2913 37.4609 20.8154C38.623 21.3167 39.7624 21.875 40.8789 22.4902V30.6592H40.332C39.7396 30.1123 38.9762 29.4515 38.042 28.6768C37.1077 27.902 35.9684 27.1387 34.624 26.3867C33.3252 25.6803 31.9124 25.0993 30.3857 24.6436C28.859 24.1878 27.0931 23.96 25.0879 23.96C22.9232 23.96 20.8724 24.4043 18.9355 25.293C16.9987 26.1816 15.3011 27.4919 13.8428 29.2236C12.4072 30.9554 11.2907 33.1315 10.4932 35.752C9.69564 38.3724 9.29688 41.3232 9.29688 44.6045C9.29688 48.0908 9.71842 51.0986 10.5615 53.6279C11.4046 56.1344 12.5553 58.2536 14.0137 59.9854C15.4264 61.6715 17.0898 62.9476 19.0039 63.8135C20.918 64.6566 22.946 65.0781 25.0879 65.0781C27.0475 65.0781 28.859 64.8389 30.5225 64.3604C32.1859 63.8818 33.667 63.278 34.9658 62.5488C36.2191 61.8424 37.3014 61.1247 38.2129 60.3955C39.1243 59.6436 39.8421 59.0055 40.3662 58.4814H40.8789V66.5479C39.7624 67.0719 38.7028 67.5732 37.7002 68.0518C36.7204 68.5303 35.5241 68.9974 34.1113 69.4531C32.6302 69.9316 31.2516 70.2962 29.9756 70.5469C28.7223 70.7975 27.0817 70.9229 25.0537 70.9229ZM76.6992 31.8213L56.1572 84.082H49.2871L56.123 68.1543L42.2461 31.8213H49.1846L59.6094 60.0879L70 31.8213H76.6992ZM101.787 38.7256H101.445C100.967 38.5889 100.454 38.5091 99.9072 38.4863C99.3831 38.4408 98.7451 38.418 97.9932 38.418C96.2614 38.418 94.541 38.7939 92.832 39.5459C91.123 40.2979 89.5052 41.4144 87.9785 42.8955V70H81.5527V31.8213H87.9785V37.4951C90.3255 35.4215 92.3649 33.9632 94.0967 33.1201C95.8512 32.2542 97.5488 31.8213 99.1895 31.8213C99.8503 31.8213 100.34 31.8441 100.659 31.8896C101.001 31.9124 101.377 31.958 101.787 32.0264V38.7256ZM113.34 70H106.914V31.8213H113.34V70ZM113.784 25.4297H106.47V18.7646H113.784V25.4297ZM152.783 70H146.357V48.2617C146.357 46.5072 146.266 44.8779 146.084 43.374C145.924 41.8473 145.605 40.6283 145.127 39.7168C144.603 38.7598 143.874 38.0534 142.939 37.5977C142.005 37.1191 140.729 36.8799 139.111 36.8799C137.516 36.8799 135.864 37.3128 134.155 38.1787C132.469 39.0218 130.817 40.127 129.199 41.4941V70H122.773V31.8213H129.199V36.0596C131.113 34.3506 133.005 33.0404 134.873 32.1289C136.742 31.2174 138.713 30.7617 140.786 30.7617C144.546 30.7617 147.485 32.0036 149.604 34.4873C151.724 36.9482 152.783 40.5257 152.783 45.2197V70Z" fill="#27271F"/>
<path d="M15.8594 69.248L15.4867 70.176L15.4893 70.177L15.8594 69.248ZM3.8623 33.4619L2.91706 33.1355L2.91499 33.1416L3.8623 33.4619ZM8.61328 25.1904L7.86628 24.5256L7.86387 24.5283L8.61328 25.1904ZM15.8252 19.9951L16.2173 20.9151L16.2236 20.9123L15.8252 19.9951ZM29.9414 18.5596L29.7745 19.5456L29.777 19.546L29.9414 18.5596ZM34.1113 19.5166L34.4096 18.5621L34.4018 18.5597L34.1113 19.5166ZM37.4609 20.8154L37.043 21.7239L37.0539 21.7289L37.0648 21.7336L37.4609 20.8154ZM40.8789 22.4902H41.8789V21.8995L41.3615 21.6144L40.8789 22.4902ZM40.8789 30.6592V31.6592H41.8789V30.6592H40.8789ZM40.332 30.6592L39.6538 31.394L39.941 31.6592H40.332V30.6592ZM34.624 26.3867L35.1122 25.5139L35.1018 25.5082L34.624 26.3867ZM13.8428 29.2236L13.0778 28.5795L13.0729 28.5854L13.8428 29.2236ZM10.5615 53.6279L9.61284 53.9442L9.61371 53.9467L10.5615 53.6279ZM14.0137 59.9854L14.7802 59.3431L14.7786 59.3412L14.0137 59.9854ZM19.0039 63.8135L18.5917 64.7246L18.6008 64.7286L19.0039 63.8135ZM34.9658 62.5488L35.4554 63.4208L35.4568 63.42L34.9658 62.5488ZM38.2129 60.3955L38.8376 61.1764L38.8435 61.1717L38.8493 61.1669L38.2129 60.3955ZM40.3662 58.4814V57.4814H39.952L39.6591 57.7743L40.3662 58.4814ZM40.8789 58.4814H41.8789V57.4814H40.8789V58.4814ZM40.8789 66.5479L41.3038 67.4531L41.8789 67.1831V66.5479H40.8789ZM37.7002 68.0518L37.2694 67.1492L37.2614 67.1532L37.7002 68.0518ZM34.1113 69.4531L33.8043 68.5014L33.8039 68.5016L34.1113 69.4531ZM29.9756 70.5469L29.7828 69.5656L29.7795 69.5663L29.9756 70.5469ZM25.0537 69.9229C21.8406 69.9229 18.9029 69.3841 16.2295 68.3191L15.4893 70.177C18.4213 71.3451 21.6132 71.9229 25.0537 71.9229V69.9229ZM16.2321 68.3201C13.591 67.2593 11.3114 65.6821 9.3843 63.5817L7.91062 64.9339C10.0395 67.2541 12.5679 69.0037 15.4867 70.176L16.2321 68.3201ZM9.3843 63.5817C7.4646 61.4895 5.95715 58.8595 4.87803 55.6662L2.9833 56.3065C4.13725 59.7212 5.77433 62.6056 7.91062 64.9339L9.3843 63.5817ZM4.87803 55.6662C3.80326 52.4857 3.25586 48.8034 3.25586 44.6045H1.25586C1.25586 48.9733 1.82499 52.8788 2.9833 56.3065L4.87803 55.6662ZM3.25586 44.6045C3.25586 40.4239 3.78161 36.8225 4.80962 33.7822L2.91499 33.1416C1.80107 36.436 1.25586 40.2629 1.25586 44.6045H3.25586ZM4.80753 33.7883C5.86161 30.7359 7.38165 28.0948 9.36269 25.8525L7.86387 24.5283C5.69778 26.9801 4.0505 29.8533 2.91708 33.1355L4.80753 33.7883ZM9.36028 25.8553C11.2912 23.6857 13.5743 22.0416 16.2173 20.915L15.4331 19.0752C12.5162 20.3185 9.99137 22.1379 7.86628 24.5256L9.36028 25.8553ZM16.2236 20.9123C18.8619 19.7662 21.8341 19.1836 25.1562 19.1836V17.1836C21.5969 17.1836 18.3483 17.8087 15.4267 19.0779L16.2236 20.9123ZM25.1562 19.1836C26.8168 19.1836 28.3555 19.3054 29.7745 19.5456L30.1083 17.5736C28.5651 17.3124 26.9137 17.1836 25.1562 17.1836V19.1836ZM29.777 19.546C31.2442 19.7905 32.5915 20.1003 33.8208 20.4735L34.4018 18.5597C33.0791 18.1582 31.6464 17.8299 30.1058 17.5732L29.777 19.546ZM33.8131 20.4711C34.8624 20.799 35.939 21.2161 37.043 21.7239L37.8788 19.9069C36.7043 19.3666 35.5478 18.9178 34.4096 18.5621L33.8131 20.4711ZM37.0648 21.7336C38.1972 22.2221 39.3077 22.7662 40.3963 23.3661L41.3615 21.6144C40.217 20.9838 39.0489 20.4113 37.857 19.8972L37.0648 21.7336ZM39.8789 22.4902V30.6592H41.8789V22.4902H39.8789ZM40.8789 29.6592H40.332V31.6592H40.8789V29.6592ZM41.0103 29.9244C40.4001 29.3611 39.6221 28.688 38.6803 27.907L37.4037 29.4465C38.3303 30.215 39.079 30.8635 39.6538 31.394L41.0103 29.9244ZM38.6803 27.907C37.6887 27.0847 36.4962 26.2881 35.1122 25.514L34.1359 27.2595C35.4406 27.9892 36.5268 28.7193 37.4037 29.4465L38.6803 27.907ZM35.1018 25.5082C33.7375 24.7662 32.2599 24.1594 30.6718 23.6853L30.0997 25.6018C31.565 26.0392 32.9129 26.5944 34.1463 27.2652L35.1018 25.5082ZM30.6718 23.6853C29.0319 23.1958 27.1661 22.96 25.0879 22.96V24.96C27.0201 24.96 28.6862 25.1798 30.0997 25.6018L30.6718 23.6853ZM25.0879 22.96C22.7816 22.96 20.5883 23.4344 18.5185 24.3841L19.3526 26.2019C21.1565 25.3742 23.0648 24.96 25.0879 24.96V22.96ZM18.5185 24.3841C16.4393 25.3381 14.6252 26.7421 13.0779 28.5795L14.6077 29.8678C15.9771 28.2416 17.5581 27.0252 19.3526 26.2019L18.5185 24.3841ZM13.0729 28.5854C11.5364 30.439 10.3644 32.7404 9.53649 35.4608L11.4498 36.0431C12.2169 33.5227 13.2781 31.4718 14.6127 29.8618L13.0729 28.5854ZM9.53649 35.4608C8.70522 38.1921 8.29688 41.2435 8.29688 44.6045H10.2969C10.2969 41.403 10.6861 38.5527 11.4498 36.0431L9.53649 35.4608ZM8.29688 44.6045C8.29688 48.1671 8.72713 51.287 9.61284 53.9442L11.5102 53.3117C10.7097 50.9102 10.2969 48.0145 10.2969 44.6045H8.29688ZM9.61371 53.9467C10.4902 56.5525 11.6972 58.787 13.2488 60.6295L14.7786 59.3412C13.4135 57.7201 12.319 55.7163 11.5093 53.3091L9.61371 53.9467ZM13.2472 60.6276C14.7517 62.4233 16.5344 63.7939 18.5917 64.7246L19.4161 62.9024C17.6453 62.1013 16.1012 60.9198 14.7802 59.3431L13.2472 60.6276ZM18.6008 64.7286C20.645 65.6291 22.8106 66.0781 25.0879 66.0781V64.0781C23.0813 64.0781 21.1909 63.6841 19.407 62.8983L18.6008 64.7286ZM25.0879 66.0781C27.1289 66.0781 29.0347 65.8289 30.7989 65.3214L30.246 63.3993C28.6834 63.8488 26.9661 64.0781 25.0879 64.0781V66.0781ZM30.7989 65.3214C32.5249 64.8249 34.0794 64.1933 35.4554 63.4208L34.4763 61.6768C33.2546 62.3627 31.8468 62.9388 30.246 63.3993L30.7989 65.3214ZM35.4568 63.42C36.7467 62.693 37.8757 61.9459 38.8376 61.1764L37.5882 59.6146C36.7271 60.3035 35.6915 60.9919 34.4748 61.6777L35.4568 63.42ZM38.8493 61.1669C39.7727 60.405 40.5175 59.7443 41.0733 59.1886L39.6591 57.7743C39.1667 58.2667 38.476 58.8821 37.5765 59.6241L38.8493 61.1669ZM40.3662 59.4814H40.8789V57.4814H40.3662V59.4814ZM39.8789 58.4814V66.5479H41.8789V58.4814H39.8789ZM40.454 65.6426C39.3357 66.1675 38.2742 66.6697 37.2695 67.1493L38.1309 68.9542C39.1314 68.4767 40.189 67.9764 41.3038 67.4531L40.454 65.6426ZM37.2614 67.1532C36.3363 67.605 35.1869 68.0554 33.8043 68.5014L34.4183 70.4048C35.8613 69.9394 37.1045 69.4556 38.139 68.9503L37.2614 67.1532ZM33.8039 68.5016C32.3533 68.9702 31.0134 69.3239 29.7828 69.5656L30.1683 71.5281C31.4898 71.2685 32.9071 70.8931 34.4188 70.4047L33.8039 68.5016ZM29.7795 69.5663C28.6169 69.7988 27.0494 69.9229 25.0537 69.9229V71.9229C27.1141 71.9229 28.8277 71.7962 30.1717 71.5275L29.7795 69.5663ZM76.6992 31.8213L77.6299 32.1871L78.1668 30.8213H76.6992V31.8213ZM56.1572 84.082V85.082H56.8386L57.0879 84.4479L56.1572 84.082ZM49.2871 84.082L48.3682 83.6876L47.7697 85.082H49.2871V84.082ZM56.123 68.1543L57.042 68.5487L57.2019 68.1762L57.0572 67.7975L56.123 68.1543ZM42.2461 31.8213V30.8213H40.7937L41.3119 32.1781L42.2461 31.8213ZM49.1846 31.8213L50.1228 31.4753L49.8816 30.8213H49.1846V31.8213ZM59.6094 60.0879L58.6711 60.4339L59.6109 62.9821L60.548 60.4329L59.6094 60.0879ZM70 31.8213V30.8213H69.3022L69.0614 31.4763L70 31.8213ZM75.7685 31.4555L55.2265 83.7162L57.0879 84.4479L77.6299 32.1871L75.7685 31.4555ZM56.1572 83.082H49.2871V85.082H56.1572V83.082ZM50.2061 84.4764L57.042 68.5487L55.2041 67.7599L48.3682 83.6876L50.2061 84.4764ZM57.0572 67.7975L43.1803 31.4645L41.3119 32.1781L55.1889 68.5111L57.0572 67.7975ZM42.2461 32.8213H49.1846V30.8213H42.2461V32.8213ZM48.2463 32.1673L58.6711 60.4339L60.5476 59.7419L50.1228 31.4753L48.2463 32.1673ZM60.548 60.4329L70.9386 32.1663L69.0614 31.4763L58.6708 59.7429L60.548 60.4329ZM70 32.8213H76.6992V30.8213H70V32.8213ZM101.787 38.7256V39.7256H102.787V38.7256H101.787ZM101.445 38.7256L101.171 39.6871L101.305 39.7256H101.445V38.7256ZM99.9072 38.4863L99.8206 39.4826L99.8431 39.4845L99.8656 39.4855L99.9072 38.4863ZM87.9785 42.8955L87.2822 42.1778L86.9785 42.4724V42.8955H87.9785ZM87.9785 70V71H88.9785V70H87.9785ZM81.5527 70H80.5527V71H81.5527V70ZM81.5527 31.8213V30.8213H80.5527V31.8213H81.5527ZM87.9785 31.8213H88.9785V30.8213H87.9785V31.8213ZM87.9785 37.4951H86.9785V39.713L88.6406 38.2445L87.9785 37.4951ZM94.0967 33.1201L94.5344 34.0192L94.5392 34.0169L94.0967 33.1201ZM100.659 31.8896L100.518 32.8796L100.555 32.8849L100.593 32.8874L100.659 31.8896ZM101.787 32.0264H102.787V31.1792L101.952 31.04L101.787 32.0264ZM101.787 37.7256H101.445V39.7256H101.787V37.7256ZM101.72 37.7641C101.158 37.6036 100.567 37.5129 99.9489 37.4872L99.8656 39.4855C100.341 39.5053 100.775 39.5741 101.171 39.6871L101.72 37.7641ZM99.9939 37.4901C99.4317 37.4412 98.7629 37.418 97.9932 37.418V39.418C98.7273 39.418 99.3346 39.4403 99.8206 39.4826L99.9939 37.4901ZM97.9932 37.418C96.1122 37.418 94.2552 37.8272 92.4293 38.6306L93.2348 40.4612C94.8269 39.7607 96.4106 39.418 97.9932 39.418V37.418ZM92.4293 38.6306C90.5974 39.4366 88.8825 40.6253 87.2822 42.1778L88.6748 43.6132C90.1279 42.2035 91.6487 41.1591 93.2348 40.4612L92.4293 38.6306ZM86.9785 42.8955V70H88.9785V42.8955H86.9785ZM87.9785 69H81.5527V71H87.9785V69ZM82.5527 70V31.8213H80.5527V70H82.5527ZM81.5527 32.8213H87.9785V30.8213H81.5527V32.8213ZM86.9785 31.8213V37.4951H88.9785V31.8213H86.9785ZM88.6406 38.2445C90.9565 36.1984 92.9184 34.806 94.5344 34.0192L93.659 32.221C91.8114 33.1205 89.6945 34.6447 87.3164 36.7457L88.6406 38.2445ZM94.5392 34.0169C96.1824 33.2059 97.7291 32.8213 99.1895 32.8213V30.8213C97.3685 30.8213 95.5201 31.3025 93.6541 32.2234L94.5392 34.0169ZM99.1895 32.8213C99.8413 32.8213 100.272 32.8445 100.518 32.8796L100.801 30.8997C100.408 30.8436 99.8592 30.8213 99.1895 30.8213V32.8213ZM100.593 32.8874C100.896 32.9076 101.238 32.9487 101.623 33.0128L101.952 31.04C101.516 30.9673 101.106 30.9172 100.726 30.8919L100.593 32.8874ZM100.787 32.0264V38.7256H102.787V32.0264H100.787ZM113.34 70V71H114.34V70H113.34ZM106.914 70H105.914V71H106.914V70ZM106.914 31.8213V30.8213H105.914V31.8213H106.914ZM113.34 31.8213H114.34V30.8213H113.34V31.8213ZM113.784 25.4297V26.4297H114.784V25.4297H113.784ZM106.47 25.4297H105.47V26.4297H106.47V25.4297ZM106.47 18.7646V17.7646H105.47V18.7646H106.47ZM113.784 18.7646H114.784V17.7646H113.784V18.7646ZM113.34 69H106.914V71H113.34V69ZM107.914 70V31.8213H105.914V70H107.914ZM106.914 32.8213H113.34V30.8213H106.914V32.8213ZM112.34 31.8213V70H114.34V31.8213H112.34ZM113.784 24.4297H106.47V26.4297H113.784V24.4297ZM107.47 25.4297V18.7646H105.47V25.4297H107.47ZM106.47 19.7646H113.784V17.7646H106.47V19.7646ZM112.784 18.7646V25.4297H114.784V18.7646H112.784ZM152.783 70V71H153.783V70H152.783ZM146.357 70H145.357V71H146.357V70ZM146.084 43.374L145.089 43.4779L145.09 43.4862L145.091 43.4944L146.084 43.374ZM145.127 39.7168L146.012 39.252L146.008 39.2442L146.004 39.2365L145.127 39.7168ZM142.939 37.5977L142.484 38.4877L142.492 38.4921L142.501 38.4964L142.939 37.5977ZM134.155 38.1787L134.602 39.0732L134.607 39.0707L134.155 38.1787ZM129.199 41.4941L128.554 40.7303L128.199 41.03V41.4941H129.199ZM129.199 70V71H130.199V70H129.199ZM122.773 70H121.773V71H122.773V70ZM122.773 31.8213V30.8213H121.773V31.8213H122.773ZM129.199 31.8213H130.199V30.8213H129.199V31.8213ZM129.199 36.0596H128.199V38.293L129.865 36.8055L129.199 36.0596ZM149.604 34.4873L148.844 35.1364L148.847 35.1398L149.604 34.4873ZM152.783 69H146.357V71H152.783V69ZM147.357 70V48.2617H145.357V70H147.357ZM147.357 48.2617C147.357 46.4731 147.265 44.8032 147.077 43.2537L145.091 43.4944C145.268 44.9527 145.357 46.5413 145.357 48.2617H147.357ZM147.079 43.2701C146.912 41.6734 146.571 40.3167 146.012 39.252L144.242 40.1816C144.64 40.9398 144.937 42.0213 145.089 43.4779L147.079 43.2701ZM146.004 39.2365C145.386 38.1075 144.508 37.25 143.378 36.6989L142.501 38.4964C143.24 38.8567 143.82 39.412 144.25 40.1971L146.004 39.2365ZM143.395 36.7076C142.264 36.1282 140.81 35.8799 139.111 35.8799V37.8799C140.648 37.8799 141.746 38.1101 142.484 38.4877L143.395 36.7076ZM139.111 35.8799C137.331 35.8799 135.524 36.3639 133.703 37.2867L134.607 39.0707C136.204 38.2617 137.702 37.8799 139.111 37.8799V35.8799ZM133.708 37.2843C131.943 38.167 130.225 39.3181 128.554 40.7303L129.845 42.2579C131.409 40.9358 132.995 39.8767 134.602 39.0731L133.708 37.2843ZM128.199 41.4941V70H130.199V41.4941H128.199ZM129.199 69H122.773V71H129.199V69ZM123.773 70V31.8213H121.773V70H123.773ZM122.773 32.8213H129.199V30.8213H122.773V32.8213ZM128.199 31.8213V36.0596H130.199V31.8213H128.199ZM129.865 36.8055C131.726 35.144 133.542 33.8908 135.311 33.0277L134.435 31.2301C132.467 32.19 130.5 33.5572 128.533 35.3136L129.865 36.8055ZM135.311 33.0277C137.044 32.1826 138.865 31.7617 140.786 31.7617V29.7617C138.56 29.7617 136.439 30.2522 134.435 31.2301L135.311 33.0277ZM140.786 31.7617C144.303 31.7617 146.944 32.9103 148.844 35.1364L150.365 33.8382C148.026 31.0968 144.789 29.7617 140.786 29.7617V31.7617ZM148.847 35.1398C150.753 37.3532 151.783 40.6605 151.783 45.2197H153.783C153.783 40.3909 152.695 36.5433 150.362 33.8348L148.847 35.1398ZM151.783 45.2197V70H153.783V45.2197H151.783Z" fill="#27271F" mask="url(#path-1-outside-1_1_23)"/>
<path d="M306.554 68.6336C306.554 73.9627 302.234 78.2828 296.905 78.2828C291.576 78.2828 287.255 73.9627 287.255 68.6336C287.255 63.3045 291.576 58.9844 296.905 58.9844C302.234 58.9844 306.554 63.3045 306.554 68.6336Z" stroke="#27271F" stroke-width="2"/>
<line x1="146.929" y1="69.1923" x2="287.28" y2="69.1923" stroke="#27271F" stroke-width="2"/>
</svg>
