<svg width="328" height="119" viewBox="0 0 328 119" fill="none" xmlns="http://www.w3.org/2000/svg">
<path d="M66.9465 34.4034H80.5496C80.5496 34.4034 78.89 23.6138 70.634 13.9405C65.9153 8.30755 59.9608 5.34458 56.1155 4.30032C56.3139 4.26726 66.945 34.4019 66.945 34.4019L66.9465 34.4034Z" fill="white"/>
<path d="M37.3276 2.84281L29.6805 24.0945C29.6805 24.0945 34.5105 18.8252 43.264 18.744C52.0191 18.6629 58.0141 24.6099 58.0141 24.6099L50.2768 2.97954C50.2768 2.97954 44.868 1.66934 37.3261 2.84131L37.3276 2.84281Z" fill="white"/>
<path d="M6.87895 73.6627L6.4851 48.3346C6.4851 48.3346 5.81464 35.2792 9.20902 25.9605C12.6034 16.6419 21.7132 8.05794 31.3071 4.521C31.2995 4.521 6.87745 73.6627 6.87745 73.6627H6.87895Z" fill="white"/>
<path d="M22.5821 44.3877L8.13116 85.2714C8.13116 85.2714 11.2955 97.0783 18.7713 102.316L24.9618 83.9251C24.9618 83.9251 22.5445 77.5274 22.5009 67.9187C22.4573 58.3101 22.5806 44.3877 22.5806 44.3877H22.5821Z" fill="white"/>
<path d="M63.7235 81.291C63.7235 81.291 63.7897 81.7448 62.7058 83.5388L68.8737 102.965C68.8737 102.965 71.7615 100.986 74.8146 95.8385C77.8678 90.6908 79.6897 85.3478 80.5135 81.2925H63.7235V81.291Z" fill="white"/>
<path d="M28.5531 89.2109C28.5531 89.2109 33.4507 96.109 43.5196 96.109C53.5885 96.109 58.7613 89.1417 59.0514 88.7271L64.5473 106.035C64.5473 106.035 55.6089 112.404 44.2307 112.171C32.8524 111.938 26.3839 109.226 23.1022 105.258L28.5531 89.2109Z" fill="white"/>
<path d="M33.8987 72.1301L29.5377 85.9969C29.6264 86.2028 29.7181 86.4101 29.8143 86.6175H56.5905C56.5905 86.6175 57.3918 86.1337 57.966 85.3073L53.7824 72.1301H33.8987Z" fill="white"/>
<path d="M18.7728 102.316L18.6225 102.818C18.6225 102.818 11.267 96.339 8.48895 86.6177L21.0007 95.6959L18.7713 102.316H18.7728Z" fill="white"/>
<path d="M24.2612 101.841C24.156 102.02 22.8106 106.099 22.8106 106.099C22.8106 106.099 34.3376 114.812 51.1532 111.672C59.7639 110.335 64.5458 106.033 64.5458 106.033" fill="white"/>
<path d="M60.3261 31.0888C58.0412 28.9327 55.9967 27.3415 54.0019 26.1786C54.0109 26.1831 54.0184 26.1861 54.0184 26.1861C54.0184 26.1861 53.5494 25.8871 52.7121 25.4814C51.6733 24.966 50.6376 24.5619 49.5763 24.2493C47.8701 23.7204 45.764 23.2847 43.4174 23.2622C37.5005 22.9737 32.5608 25.9893 29.8714 28.0883C28.4719 29.1806 27.6812 30.025 27.6812 30.025L27.5429 75.4404L28.5846 72.1303H28.5531L43.8233 23.5206L60.3878 76.2397H76.2909L60.3246 31.0873L60.3261 31.0888Z" fill="white"/>
<path d="M8.13116 85.2712C8.13116 85.2712 9.9411 94.5704 18.621 102.818L8.13116 85.2712Z" fill="white"/>
<path d="M27.6812 30.0249C27.6812 30.0249 35.6665 21.6888 46.5096 23.5279C53.7298 24.8592 57.7511 28.8874 60.3246 31.0871" stroke="white" stroke-miterlimit="10"/>
<path d="M121.509 25.4905H114.496C114.368 24.2362 114.106 23.1221 113.712 22.1481C113.317 21.1594 112.81 20.3183 112.19 19.6247C111.571 18.9312 110.856 18.3999 110.045 18.031C109.244 17.6621 108.374 17.4777 107.435 17.4777C105.738 17.4777 104.259 18.0605 103 19.2263C101.74 20.3773 100.764 22.0596 100.07 24.2731C99.3759 26.4718 99.029 29.1427 99.029 32.2859C99.029 35.5176 99.3759 38.2328 100.07 40.4315C100.774 42.6303 101.756 44.2904 103.016 45.4119C104.275 46.5334 105.732 47.0941 107.387 47.0941C108.316 47.0941 109.175 46.9244 109.965 46.585C110.765 46.2456 111.475 45.7513 112.094 45.102C112.713 44.438 113.226 43.6337 113.631 42.6893C114.048 41.7449 114.336 40.6676 114.496 39.4576L121.509 39.5019C121.328 41.5826 120.874 43.5894 120.148 45.5226C119.433 47.4409 118.467 49.1601 117.25 50.68C116.044 52.1852 114.603 53.3804 112.927 54.2658C111.262 55.1365 109.378 55.5718 107.275 55.5718C104.35 55.5718 101.735 54.6569 99.4293 52.8271C97.1343 50.9973 95.3197 48.3484 93.9854 44.8806C92.6618 41.4129 92 37.2146 92 32.2859C92 27.3424 92.6725 23.1368 94.0174 19.669C95.3624 16.2012 97.1877 13.5598 99.4934 11.7447C101.799 9.91491 104.393 9 107.275 9C109.175 9 110.936 9.36891 112.559 10.1067C114.192 10.8446 115.638 11.9218 116.898 13.3384C118.157 14.7403 119.182 16.4595 119.972 18.4959C120.773 20.5323 121.285 22.8638 121.509 25.4905Z" fill="white"/>
<path d="M149.358 9.61978H157.123L164.601 29.1427H164.921L172.398 9.61978H180.164L168.203 38.9264V54.952H161.318V38.9264L149.358 9.61978Z" fill="white"/>
<path d="M208.749 54.952V9.61978H221.686C224.163 9.61978 226.276 10.2322 228.027 11.457C229.788 12.667 231.128 14.3862 232.046 16.6144C232.974 18.8279 233.439 21.4324 233.439 24.428C233.439 27.4384 232.969 30.0281 232.03 32.1974C231.09 34.3518 229.729 36.0046 227.947 37.1556C226.175 38.3066 224.029 38.8821 221.51 38.8821H212.848V31.1792H220.389C221.713 31.1792 222.812 30.9283 223.688 30.4266C224.563 29.9248 225.214 29.1723 225.641 28.1688C226.079 27.1654 226.298 25.9184 226.298 24.428C226.298 22.9228 226.079 21.6538 225.641 20.6208C225.214 19.5879 224.558 18.8058 223.672 18.2745C222.796 17.7285 221.692 17.4555 220.357 17.4555H215.682V54.952H208.749ZM226.458 34.3223L234.608 54.952H226.954L218.98 34.3223H226.458Z" fill="white"/>
<path d="M270.07 9.61978V54.952H263.137V9.61978H270.07Z" fill="white"/>
<path d="M328 9.61978V54.952H322.012L307.746 26.4202H307.505V54.952H300.572V9.61978H306.657L320.811 38.1295H321.099V9.61978H328Z" fill="white"/>
<path d="M100.232 110.358H92.8031L104.123 65.0259H113.058L124.362 110.358H116.932L108.718 75.385H108.462L100.232 110.358ZM99.768 92.5395H117.317V100.021H99.768V92.5395Z" fill="white"/>
<path d="M144.991 65.0259H153.541L162.572 95.4835H162.956L171.986 65.0259H180.537V110.358H173.812V80.8523H173.54L165.053 110.137H160.474L151.988 80.7416H151.716V110.358H144.991V65.0259Z" fill="white"/>
<path d="M202.931 110.358V65.0259H216.061C218.473 65.0259 220.485 65.5202 222.097 66.5089C223.709 67.4976 224.92 68.8699 225.732 70.626C226.543 72.3673 226.948 74.3742 226.948 76.6467C226.948 78.4175 226.692 79.9743 226.18 81.3171C225.668 82.6452 224.963 83.7372 224.066 84.5931C223.18 85.4342 222.166 86.0319 221.024 86.386V86.8287C222.273 86.9025 223.442 87.3895 224.531 88.2896C225.63 89.1898 226.521 90.4515 227.205 92.0747C227.888 93.6832 228.229 95.6015 228.229 97.8298C228.229 100.235 227.797 102.382 226.932 104.271C226.079 106.145 224.814 107.628 223.138 108.72C221.462 109.812 219.396 110.358 216.941 110.358H202.931ZM209.864 102.522H215.516C217.448 102.522 218.857 102.013 219.743 100.995C220.629 99.9621 221.072 98.5897 221.072 96.878C221.072 95.6236 220.853 94.5169 220.416 93.5577C219.978 92.5985 219.354 91.846 218.542 91.3C217.742 90.754 216.787 90.481 215.676 90.481H209.864V102.522ZM209.864 83.9955H215.004C215.954 83.9955 216.797 83.7667 217.534 83.3093C218.281 82.8371 218.868 82.173 219.295 81.3171C219.733 80.4612 219.951 79.4357 219.951 78.2404C219.951 76.6024 219.53 75.2817 218.687 74.2782C217.854 73.2748 216.669 72.7731 215.132 72.7731H209.864V83.9955Z" fill="white"/>
<path d="M279.557 87.692C279.557 92.6354 278.879 96.8411 277.523 100.309C276.178 103.777 274.342 106.425 272.015 108.255C269.699 110.07 267.095 110.978 264.202 110.978C261.288 110.978 258.673 110.063 256.356 108.233C254.04 106.403 252.209 103.755 250.864 100.287C249.519 96.8189 248.847 92.6207 248.847 87.692C248.847 82.7485 249.519 78.5429 250.864 75.0751C252.209 71.6073 254.04 68.9659 256.356 67.1508C258.673 65.321 261.288 64.4061 264.202 64.4061C267.095 64.4061 269.699 65.321 272.015 67.1508C274.342 68.9659 276.178 71.6073 277.523 75.0751C278.879 78.5429 279.557 82.7485 279.557 87.692ZM272.528 87.692C272.528 84.4898 272.181 81.7893 271.487 79.5906C270.804 77.3919 269.838 75.7244 268.589 74.5881C267.34 73.4519 265.878 72.8837 264.202 72.8837C262.526 72.8837 261.064 73.4519 259.815 74.5881C258.566 75.7244 257.594 77.3919 256.901 79.5906C256.217 81.7893 255.876 84.4898 255.876 87.692C255.876 90.8942 256.217 93.5946 256.901 95.7933C257.594 97.9921 258.566 99.6596 259.815 100.796C261.064 101.932 262.526 102.5 264.202 102.5C265.878 102.5 267.34 101.932 268.589 100.796C269.838 99.6596 270.804 97.9921 271.487 95.7933C272.181 93.5946 272.528 90.8942 272.528 87.692Z" fill="white"/>
<path d="M319.164 78.0633C319.036 76.2778 318.486 74.8906 317.515 73.9019C316.543 72.9132 315.225 72.4189 313.56 72.4189C312.428 72.4189 311.473 72.6403 310.694 73.083C309.915 73.5109 309.317 74.1085 308.901 74.8759C308.495 75.6432 308.292 76.5139 308.292 77.4878C308.271 78.2994 308.393 79.0077 308.66 79.6127C308.938 80.2178 309.317 80.7416 309.797 81.1843C310.277 81.6123 310.833 81.9886 311.462 82.3132C312.092 82.6231 312.765 82.8887 313.48 83.1101L316.426 84.084C317.856 84.5267 319.169 85.1169 320.365 85.8548C321.56 86.5926 322.596 87.5001 323.471 88.5774C324.346 89.6546 325.024 90.9237 325.504 92.3846C325.995 93.8455 326.246 95.5203 326.257 97.4092C326.246 100.183 325.734 102.589 324.72 104.625C323.716 106.647 322.265 108.218 320.365 109.34C318.475 110.447 316.196 111 313.528 111C310.881 111 308.575 110.439 306.611 109.318C304.657 108.196 303.131 106.536 302.032 104.337C300.943 102.124 300.372 99.3866 300.318 96.1254H307.027C307.102 97.6453 307.417 98.9144 307.972 99.9326C308.538 100.936 309.29 101.696 310.229 102.212C311.179 102.714 312.252 102.965 313.448 102.965C314.622 102.965 315.641 102.729 316.506 102.257C317.381 101.785 318.059 101.128 318.539 100.287C319.02 99.4456 319.26 98.479 319.26 97.3871C319.26 96.3688 319.041 95.513 318.603 94.8194C318.176 94.1258 317.547 93.5356 316.714 93.0486C315.892 92.5616 314.883 92.1189 313.688 91.7205L310.117 90.481C307.353 89.5513 305.17 88.0978 303.569 86.1204C301.968 84.143 301.172 81.4794 301.183 78.1297C301.172 75.385 301.701 72.987 302.768 70.9359C303.846 68.8847 305.325 67.2836 307.203 66.1326C309.082 64.9816 311.217 64.4061 313.608 64.4061C316.042 64.4061 318.166 64.9816 319.98 66.1326C321.806 67.2836 323.225 68.8847 324.239 70.9359C325.254 72.987 325.777 75.3628 325.809 78.0633H319.164Z" fill="white"/>
</svg>
