<?xml version="1.0" encoding="UTF-8"?>
<svg id="arrow-left" xmlns="http://www.w3.org/2000/svg" viewBox="0 0 212.27 227.29">
  <defs>
    <style>
      .cls-1 {
        fill: #2e8b57;
      }
    </style>
  </defs>
  <path class="cls-1" d="M41.74,107.72l62.55-60.13s7.09-6.29-.81-15.64c-4.67-4.84-12.09-2.1-14.83,0-2.74,2.1-79.47,75.76-79.47,75.76l-3.39,3.87s-7.09,7.09,0,14.51c7.09,7.42,82.86,79.47,82.86,79.47,0,0,8.38,6.45,15.8-.81,6.53-7.9.64-14.35-1.45-16.44s-61.26-58.52-61.26-58.52h158.78s10.48.91,11.45-11.07c0-6.18-5.32-11.02-11.45-11.02s-158.78,0-158.78,0Z"/>
</svg>